<svg xmlns="http://www.w3.org/2000/svg" xmlns:xlink="http://www.w3.org/1999/xlink" width="200" zoomAndPan="magnify" viewBox="0 0 150 74.999997" height="100" preserveAspectRatio="xMidYMid meet" version="1.0"><defs><g/><clipPath id="2629625abd"><path d="M 69.117188 38.34375 L 75 38.34375 L 75 38.855469 L 69.117188 38.855469 Z M 69.117188 38.34375 " clip-rule="nonzero"/></clipPath><clipPath id="5e6b7e85a5"><path d="M 69.117188 37.5 L 80.882812 37.5 L 80.882812 38.03125 L 69.117188 38.03125 Z M 69.117188 37.5 " clip-rule="nonzero"/></clipPath><clipPath id="3c6e59267d"><path d="M 75 38.855469 L 80.882812 38.855469 L 80.882812 39.367188 L 75 39.367188 Z M 75 38.855469 " clip-rule="nonzero"/></clipPath><clipPath id="bb7dfde9eb"><path d="M 69.117188 38.363281 L 69.753906 38.363281 L 69.753906 39.460938 L 69.117188 39.460938 Z M 69.117188 38.363281 " clip-rule="nonzero"/></clipPath></defs><g fill="#000000" fill-opacity="0.3294"><g transform="translate(68.90764, 37.132634)"><g><path d="M 0.445312 0.0117188 C 0.640625 0.0117188 0.785156 -0.109375 0.785156 -0.304688 C 0.785156 -0.660156 0.25 -0.605469 0.25 -0.863281 C 0.25 -0.972656 0.339844 -1.039062 0.4375 -1.039062 C 0.527344 -1.039062 0.617188 -1 0.664062 -0.90625 L 0.738281 -0.960938 C 0.671875 -1.074219 0.566406 -1.128906 0.4375 -1.128906 C 0.277344 -1.128906 0.148438 -1.015625 0.148438 -0.851562 C 0.148438 -0.519531 0.683594 -0.597656 0.683594 -0.296875 C 0.683594 -0.148438 0.582031 -0.0820312 0.445312 -0.0820312 C 0.3125 -0.0820312 0.1875 -0.15625 0.167969 -0.308594 L 0.0742188 -0.277344 C 0.101562 -0.0820312 0.269531 0.0117188 0.445312 0.0117188 Z M 0.445312 0.0117188 "/></g></g></g><g fill="#000000" fill-opacity="0.3294"><g transform="translate(69.776878, 37.132634)"><g><path d="M 0.171875 0 L 0.753906 0 L 0.753906 -0.09375 L 0.277344 -0.09375 L 0.277344 -1.113281 L 0.171875 -1.113281 Z M 0.171875 0 "/></g></g></g><g fill="#000000" fill-opacity="0.3294"><g transform="translate(70.587852, 37.132634)"><g><path d="M 0.171875 0 L 0.886719 0 L 0.886719 -0.09375 L 0.277344 -0.09375 L 0.277344 -0.515625 L 0.800781 -0.515625 L 0.800781 -0.601562 L 0.277344 -0.601562 L 0.277344 -1.023438 L 0.886719 -1.023438 L 0.886719 -1.113281 L 0.171875 -1.113281 Z M 0.171875 0 "/></g></g></g><g fill="#000000" fill-opacity="0.3294"><g transform="translate(71.561809, 37.132634)"><g><path d="M 0.171875 0 L 0.886719 0 L 0.886719 -0.09375 L 0.277344 -0.09375 L 0.277344 -0.515625 L 0.800781 -0.515625 L 0.800781 -0.601562 L 0.277344 -0.601562 L 0.277344 -1.023438 L 0.886719 -1.023438 L 0.886719 -1.113281 L 0.171875 -1.113281 Z M 0.171875 0 "/></g></g></g><g fill="#000000" fill-opacity="0.3294"><g transform="translate(72.535765, 37.132634)"><g><path d="M 0.171875 0 L 0.277344 0 L 0.277344 -0.3125 L 0.5625 -0.605469 L 0.953125 0 L 1.078125 0 L 0.632812 -0.679688 L 1.046875 -1.113281 L 0.914062 -1.113281 L 0.277344 -0.441406 L 0.277344 -1.113281 L 0.171875 -1.113281 Z M 0.171875 0 "/></g></g></g><g fill="#0cc0df" fill-opacity="1"><g transform="translate(68.836338, 37.061333)"><g><path d="M 0.445312 0.0117188 C 0.640625 0.0117188 0.785156 -0.109375 0.785156 -0.304688 C 0.785156 -0.660156 0.25 -0.605469 0.25 -0.863281 C 0.25 -0.972656 0.339844 -1.039062 0.4375 -1.039062 C 0.527344 -1.039062 0.617188 -1 0.664062 -0.90625 L 0.738281 -0.960938 C 0.671875 -1.074219 0.566406 -1.128906 0.4375 -1.128906 C 0.277344 -1.128906 0.148438 -1.015625 0.148438 -0.851562 C 0.148438 -0.519531 0.683594 -0.597656 0.683594 -0.296875 C 0.683594 -0.148438 0.582031 -0.0820312 0.445312 -0.0820312 C 0.3125 -0.0820312 0.1875 -0.15625 0.167969 -0.308594 L 0.0742188 -0.277344 C 0.101562 -0.0820312 0.269531 0.0117188 0.445312 0.0117188 Z M 0.445312 0.0117188 "/></g></g></g><g fill="#0cc0df" fill-opacity="1"><g transform="translate(69.705577, 37.061333)"><g><path d="M 0.171875 0 L 0.753906 0 L 0.753906 -0.09375 L 0.277344 -0.09375 L 0.277344 -1.113281 L 0.171875 -1.113281 Z M 0.171875 0 "/></g></g></g><g fill="#0cc0df" fill-opacity="1"><g transform="translate(70.516551, 37.061333)"><g><path d="M 0.171875 0 L 0.886719 0 L 0.886719 -0.09375 L 0.277344 -0.09375 L 0.277344 -0.515625 L 0.800781 -0.515625 L 0.800781 -0.601562 L 0.277344 -0.601562 L 0.277344 -1.023438 L 0.886719 -1.023438 L 0.886719 -1.113281 L 0.171875 -1.113281 Z M 0.171875 0 "/></g></g></g><g fill="#0cc0df" fill-opacity="1"><g transform="translate(71.490507, 37.061333)"><g><path d="M 0.171875 0 L 0.886719 0 L 0.886719 -0.09375 L 0.277344 -0.09375 L 0.277344 -0.515625 L 0.800781 -0.515625 L 0.800781 -0.601562 L 0.277344 -0.601562 L 0.277344 -1.023438 L 0.886719 -1.023438 L 0.886719 -1.113281 L 0.171875 -1.113281 Z M 0.171875 0 "/></g></g></g><g fill="#0cc0df" fill-opacity="1"><g transform="translate(72.464463, 37.061333)"><g><path d="M 0.171875 0 L 0.277344 0 L 0.277344 -0.3125 L 0.5625 -0.605469 L 0.953125 0 L 1.078125 0 L 0.632812 -0.679688 L 1.046875 -1.113281 L 0.914062 -1.113281 L 0.277344 -0.441406 L 0.277344 -1.113281 L 0.171875 -1.113281 Z M 0.171875 0 "/></g></g></g><g fill="#000000" fill-opacity="0.3294"><g transform="translate(73.67014, 37.132634)"><g><path d="M 0.171875 0 L 0.277344 0 L 0.277344 -1.113281 L 0.171875 -1.113281 Z M 0.171875 0 "/></g></g></g><g fill="#000000" fill-opacity="0.3294"><g transform="translate(74.121293, 37.132634)"><g><path d="M 0.171875 0 L 0.28125 0 L 0.28125 -1.03125 L 0.757812 0 L 0.9375 0 L 0.9375 -1.113281 L 0.832031 -1.113281 L 0.832031 -0.0820312 L 0.347656 -1.113281 L 0.171875 -1.113281 Z M 0.171875 0 "/></g></g></g><g fill="#000000" fill-opacity="0.3294"><g transform="translate(75.230675, 37.132634)"><g><path d="M 0.472656 0 L 0.570312 0 L 0.980469 -1.113281 L 0.875 -1.113281 L 0.519531 -0.125 L 0.167969 -1.113281 L 0.0585938 -1.113281 Z M 0.472656 0 "/></g></g></g><g fill="#000000" fill-opacity="0.3294"><g transform="translate(76.269194, 37.132634)"><g><path d="M 0.171875 0 L 0.886719 0 L 0.886719 -0.09375 L 0.277344 -0.09375 L 0.277344 -0.515625 L 0.800781 -0.515625 L 0.800781 -0.601562 L 0.277344 -0.601562 L 0.277344 -1.023438 L 0.886719 -1.023438 L 0.886719 -1.113281 L 0.171875 -1.113281 Z M 0.171875 0 "/></g></g></g><g fill="#000000" fill-opacity="0.3294"><g transform="translate(77.24315, 37.132634)"><g><path d="M 0.445312 0.0117188 C 0.640625 0.0117188 0.785156 -0.109375 0.785156 -0.304688 C 0.785156 -0.660156 0.25 -0.605469 0.25 -0.863281 C 0.25 -0.972656 0.339844 -1.039062 0.4375 -1.039062 C 0.527344 -1.039062 0.617188 -1 0.664062 -0.90625 L 0.738281 -0.960938 C 0.671875 -1.074219 0.566406 -1.128906 0.4375 -1.128906 C 0.277344 -1.128906 0.148438 -1.015625 0.148438 -0.851562 C 0.148438 -0.519531 0.683594 -0.597656 0.683594 -0.296875 C 0.683594 -0.148438 0.582031 -0.0820312 0.445312 -0.0820312 C 0.3125 -0.0820312 0.1875 -0.15625 0.167969 -0.308594 L 0.0742188 -0.277344 C 0.101562 -0.0820312 0.269531 0.0117188 0.445312 0.0117188 Z M 0.445312 0.0117188 "/></g></g></g><g fill="#000000" fill-opacity="0.3294"><g transform="translate(78.112388, 37.132634)"><g><path d="M 0.4375 0 L 0.546875 0 L 0.546875 -1.03125 L 0.929688 -1.03125 L 0.929688 -1.113281 L 0.0546875 -1.113281 L 0.0546875 -1.03125 L 0.4375 -1.03125 Z M 0.4375 0 "/></g></g></g><g fill="#000000" fill-opacity="0.3294"><g transform="translate(79.094218, 37.132634)"><g><path d="M 0.59375 0.015625 C 0.929688 0.015625 1.085938 -0.246094 1.085938 -0.558594 C 1.085938 -0.867188 0.929688 -1.128906 0.59375 -1.128906 C 0.261719 -1.128906 0.105469 -0.867188 0.105469 -0.558594 C 0.105469 -0.246094 0.261719 0.015625 0.59375 0.015625 Z M 0.59375 -0.0820312 C 0.320312 -0.0820312 0.203125 -0.3125 0.203125 -0.558594 C 0.203125 -0.800781 0.320312 -1.03125 0.59375 -1.03125 C 0.871094 -1.03125 0.988281 -0.800781 0.988281 -0.558594 C 0.988281 -0.3125 0.871094 -0.0820312 0.59375 -0.0820312 Z M 0.59375 -0.0820312 "/></g></g></g><g fill="#000000" fill-opacity="0.3294"><g transform="translate(80.283909, 37.132634)"><g><path d="M 0.171875 0 L 0.277344 0 L 0.277344 -0.503906 L 0.472656 -0.503906 L 0.753906 0 L 0.878906 0 L 0.578125 -0.519531 C 0.726562 -0.546875 0.820312 -0.65625 0.820312 -0.804688 C 0.820312 -0.996094 0.675781 -1.109375 0.480469 -1.109375 L 0.171875 -1.109375 Z M 0.28125 -0.605469 L 0.28125 -1.015625 L 0.480469 -1.015625 C 0.617188 -1.015625 0.71875 -0.945312 0.71875 -0.808594 C 0.71875 -0.679688 0.625 -0.613281 0.5 -0.605469 Z M 0.28125 -0.605469 "/></g></g></g><g fill="#000000" fill-opacity="1"><g transform="translate(73.598838, 37.061333)"><g><path d="M 0.171875 0 L 0.277344 0 L 0.277344 -1.113281 L 0.171875 -1.113281 Z M 0.171875 0 "/></g></g></g><g fill="#000000" fill-opacity="1"><g transform="translate(74.049992, 37.061333)"><g><path d="M 0.171875 0 L 0.28125 0 L 0.28125 -1.03125 L 0.757812 0 L 0.9375 0 L 0.9375 -1.113281 L 0.832031 -1.113281 L 0.832031 -0.0820312 L 0.347656 -1.113281 L 0.171875 -1.113281 Z M 0.171875 0 "/></g></g></g><g fill="#000000" fill-opacity="1"><g transform="translate(75.159373, 37.061333)"><g><path d="M 0.472656 0 L 0.570312 0 L 0.980469 -1.113281 L 0.875 -1.113281 L 0.519531 -0.125 L 0.167969 -1.113281 L 0.0585938 -1.113281 Z M 0.472656 0 "/></g></g></g><g fill="#000000" fill-opacity="1"><g transform="translate(76.197892, 37.061333)"><g><path d="M 0.171875 0 L 0.886719 0 L 0.886719 -0.09375 L 0.277344 -0.09375 L 0.277344 -0.515625 L 0.800781 -0.515625 L 0.800781 -0.601562 L 0.277344 -0.601562 L 0.277344 -1.023438 L 0.886719 -1.023438 L 0.886719 -1.113281 L 0.171875 -1.113281 Z M 0.171875 0 "/></g></g></g><g fill="#000000" fill-opacity="1"><g transform="translate(77.171848, 37.061333)"><g><path d="M 0.445312 0.0117188 C 0.640625 0.0117188 0.785156 -0.109375 0.785156 -0.304688 C 0.785156 -0.660156 0.25 -0.605469 0.25 -0.863281 C 0.25 -0.972656 0.339844 -1.039062 0.4375 -1.039062 C 0.527344 -1.039062 0.617188 -1 0.664062 -0.90625 L 0.738281 -0.960938 C 0.671875 -1.074219 0.566406 -1.128906 0.4375 -1.128906 C 0.277344 -1.128906 0.148438 -1.015625 0.148438 -0.851562 C 0.148438 -0.519531 0.683594 -0.597656 0.683594 -0.296875 C 0.683594 -0.148438 0.582031 -0.0820312 0.445312 -0.0820312 C 0.3125 -0.0820312 0.1875 -0.15625 0.167969 -0.308594 L 0.0742188 -0.277344 C 0.101562 -0.0820312 0.269531 0.0117188 0.445312 0.0117188 Z M 0.445312 0.0117188 "/></g></g></g><g fill="#000000" fill-opacity="1"><g transform="translate(78.041087, 37.061333)"><g><path d="M 0.4375 0 L 0.546875 0 L 0.546875 -1.03125 L 0.929688 -1.03125 L 0.929688 -1.113281 L 0.0546875 -1.113281 L 0.0546875 -1.03125 L 0.4375 -1.03125 Z M 0.4375 0 "/></g></g></g><g fill="#000000" fill-opacity="1"><g transform="translate(79.022917, 37.061333)"><g><path d="M 0.59375 0.015625 C 0.929688 0.015625 1.085938 -0.246094 1.085938 -0.558594 C 1.085938 -0.867188 0.929688 -1.128906 0.59375 -1.128906 C 0.261719 -1.128906 0.105469 -0.867188 0.105469 -0.558594 C 0.105469 -0.246094 0.261719 0.015625 0.59375 0.015625 Z M 0.59375 -0.0820312 C 0.320312 -0.0820312 0.203125 -0.3125 0.203125 -0.558594 C 0.203125 -0.800781 0.320312 -1.03125 0.59375 -1.03125 C 0.871094 -1.03125 0.988281 -0.800781 0.988281 -0.558594 C 0.988281 -0.3125 0.871094 -0.0820312 0.59375 -0.0820312 Z M 0.59375 -0.0820312 "/></g></g></g><g fill="#000000" fill-opacity="1"><g transform="translate(80.212608, 37.061333)"><g><path d="M 0.171875 0 L 0.277344 0 L 0.277344 -0.503906 L 0.472656 -0.503906 L 0.753906 0 L 0.878906 0 L 0.578125 -0.519531 C 0.726562 -0.546875 0.820312 -0.65625 0.820312 -0.804688 C 0.820312 -0.996094 0.675781 -1.109375 0.480469 -1.109375 L 0.171875 -1.109375 Z M 0.28125 -0.605469 L 0.28125 -1.015625 L 0.480469 -1.015625 C 0.617188 -1.015625 0.71875 -0.945312 0.71875 -0.808594 C 0.71875 -0.679688 0.625 -0.613281 0.5 -0.605469 Z M 0.28125 -0.605469 "/></g></g></g><g clip-path="url(#2629625abd)"><path fill="#000000" d="M 69.117188 38.34375 L 75.007812 38.34375 L 75.007812 38.851562 L 69.117188 38.851562 Z M 69.117188 38.34375 " fill-opacity="1" fill-rule="nonzero"/></g><g clip-path="url(#5e6b7e85a5)"><path fill="#000000" d="M 69.117188 37.5 L 80.898438 37.5 L 80.898438 38.03125 L 69.117188 38.03125 Z M 69.117188 37.5 " fill-opacity="1" fill-rule="nonzero"/></g><g clip-path="url(#3c6e59267d)"><path fill="#000000" d="M 75 38.855469 L 80.890625 38.855469 L 80.890625 39.363281 L 75 39.363281 Z M 75 38.855469 " fill-opacity="1" fill-rule="nonzero"/></g><g clip-path="url(#bb7dfde9eb)"><path fill="#000000" d="M 69.117188 39.460938 L 69.117188 38.359375 L 69.757812 38.359375 L 69.757812 39.460938 Z M 69.117188 39.460938 " fill-opacity="1" fill-rule="nonzero"/></g></svg>