<svg xmlns="http://www.w3.org/2000/svg" xmlns:xlink="http://www.w3.org/1999/xlink" width="500" zoomAndPan="magnify" viewBox="0 0 187.5 112.499997" height="130" preserveAspectRatio="xMidYMid meet" version="1.0"><defs><g/><clipPath id="894a5fcf61"><path d="M 56.285156 59.949219 L 93.75 59.949219 L 93.75 63.199219 L 56.285156 63.199219 Z M 56.285156 59.949219 " clip-rule="nonzero"/></clipPath><clipPath id="f5f78b3595"><path d="M 56.285156 54.574219 L 131.214844 54.574219 L 131.214844 57.945312 L 56.285156 57.945312 Z M 56.285156 54.574219 " clip-rule="nonzero"/></clipPath><clipPath id="fef38e4ad0"><path d="M 93.75 63.199219 L 131.214844 63.199219 L 131.214844 66.453125 L 93.75 66.453125 Z M 93.75 63.199219 " clip-rule="nonzero"/></clipPath><clipPath id="077a2d4f91"><path d="M 56.285156 60.058594 L 60.34375 60.058594 L 60.34375 67.0625 L 56.285156 67.0625 Z M 56.285156 60.058594 " clip-rule="nonzero"/></clipPath></defs><g clip-path="url(#894a5fcf61)"><path fill="#000000" d="M 56.285156 59.949219 L 93.804688 59.949219 L 93.804688 63.179688 L 56.285156 63.179688 Z M 56.285156 59.949219 " fill-opacity="1" fill-rule="nonzero"/></g><g fill="#000000" fill-opacity="0.3294"><g transform="translate(62.865316, 52.369442)"><g><path d="M 2.238281 0.0625 C 3.210938 0.0625 3.929688 -0.558594 3.929688 -1.519531 C 3.929688 -3.308594 1.242188 -3.03125 1.242188 -4.335938 C 1.242188 -4.882812 1.707031 -5.207031 2.191406 -5.207031 C 2.652344 -5.207031 3.085938 -5.007812 3.324219 -4.550781 L 3.703125 -4.820312 C 3.363281 -5.394531 2.839844 -5.660156 2.191406 -5.660156 C 1.390625 -5.660156 0.734375 -5.101562 0.734375 -4.277344 C 0.734375 -2.613281 3.417969 -2.992188 3.417969 -1.480469 C 3.417969 -0.734375 2.925781 -0.410156 2.238281 -0.410156 C 1.558594 -0.410156 0.933594 -0.777344 0.847656 -1.542969 L 0.363281 -1.390625 C 0.515625 -0.417969 1.351562 0.0625 2.238281 0.0625 Z M 2.238281 0.0625 "/></g></g><g transform="translate(67.223994, 52.369442)"><g><path d="M 0.863281 0 L 3.78125 0 L 3.78125 -0.476562 L 1.398438 -0.476562 L 1.398438 -5.578125 L 0.863281 -5.578125 Z M 0.863281 0 "/></g></g><g transform="translate(71.290514, 52.369442)"><g><path d="M 0.863281 0 L 4.453125 0 L 4.453125 -0.476562 L 1.398438 -0.476562 L 1.398438 -2.578125 L 4.011719 -2.578125 L 4.011719 -3.007812 L 1.398438 -3.007812 L 1.398438 -5.132812 L 4.453125 -5.132812 L 4.453125 -5.578125 L 0.863281 -5.578125 Z M 0.863281 0 "/></g></g><g transform="translate(76.174286, 52.369442)"><g><path d="M 0.863281 0 L 4.453125 0 L 4.453125 -0.476562 L 1.398438 -0.476562 L 1.398438 -2.578125 L 4.011719 -2.578125 L 4.011719 -3.007812 L 1.398438 -3.007812 L 1.398438 -5.132812 L 4.453125 -5.132812 L 4.453125 -5.578125 L 0.863281 -5.578125 Z M 0.863281 0 "/></g></g><g transform="translate(81.058058, 52.369442)"><g><path d="M 0.863281 0 L 1.398438 0 L 1.398438 -1.558594 L 2.824219 -3.03125 L 4.769531 0 L 5.402344 0 L 3.171875 -3.402344 L 5.246094 -5.578125 L 4.574219 -5.578125 L 1.398438 -2.214844 L 1.398438 -5.578125 L 0.863281 -5.578125 Z M 0.863281 0 "/></g></g></g><g fill="#0cc0df" fill-opacity="1"><g transform="translate(62.507965, 52.012094)"><g><path d="M 2.238281 0.0625 C 3.210938 0.0625 3.929688 -0.558594 3.929688 -1.519531 C 3.929688 -3.308594 1.242188 -3.03125 1.242188 -4.335938 C 1.242188 -4.882812 1.707031 -5.207031 2.191406 -5.207031 C 2.652344 -5.207031 3.085938 -5.007812 3.324219 -4.550781 L 3.703125 -4.820312 C 3.363281 -5.394531 2.839844 -5.660156 2.191406 -5.660156 C 1.390625 -5.660156 0.734375 -5.101562 0.734375 -4.277344 C 0.734375 -2.613281 3.417969 -2.992188 3.417969 -1.480469 C 3.417969 -0.734375 2.925781 -0.410156 2.238281 -0.410156 C 1.558594 -0.410156 0.933594 -0.777344 0.847656 -1.542969 L 0.363281 -1.390625 C 0.515625 -0.417969 1.351562 0.0625 2.238281 0.0625 Z M 2.238281 0.0625 "/></g></g><g transform="translate(66.866643, 52.012094)"><g><path d="M 0.863281 0 L 3.78125 0 L 3.78125 -0.476562 L 1.398438 -0.476562 L 1.398438 -5.578125 L 0.863281 -5.578125 Z M 0.863281 0 "/></g></g><g transform="translate(70.933163, 52.012094)"><g><path d="M 0.863281 0 L 4.453125 0 L 4.453125 -0.476562 L 1.398438 -0.476562 L 1.398438 -2.578125 L 4.011719 -2.578125 L 4.011719 -3.007812 L 1.398438 -3.007812 L 1.398438 -5.132812 L 4.453125 -5.132812 L 4.453125 -5.578125 L 0.863281 -5.578125 Z M 0.863281 0 "/></g></g><g transform="translate(75.816935, 52.012094)"><g><path d="M 0.863281 0 L 4.453125 0 L 4.453125 -0.476562 L 1.398438 -0.476562 L 1.398438 -2.578125 L 4.011719 -2.578125 L 4.011719 -3.007812 L 1.398438 -3.007812 L 1.398438 -5.132812 L 4.453125 -5.132812 L 4.453125 -5.578125 L 0.863281 -5.578125 Z M 0.863281 0 "/></g></g><g transform="translate(80.700707, 52.012094)"><g><path d="M 0.863281 0 L 1.398438 0 L 1.398438 -1.558594 L 2.824219 -3.03125 L 4.769531 0 L 5.402344 0 L 3.171875 -3.402344 L 5.246094 -5.578125 L 4.574219 -5.578125 L 1.398438 -2.214844 L 1.398438 -5.578125 L 0.863281 -5.578125 Z M 0.863281 0 "/></g></g></g><g fill="#000000" fill-opacity="0.3294"><g transform="translate(86.75031, 52.369442)"><g><path d="M 0.863281 0 L 1.398438 0 L 1.398438 -5.578125 L 0.863281 -5.578125 Z M 0.863281 0 "/></g></g><g transform="translate(89.012559, 52.369442)"><g><path d="M 0.863281 0 L 1.40625 0 L 1.40625 -5.175781 L 3.800781 0 L 4.699219 0 L 4.699219 -5.578125 L 4.164062 -5.578125 L 4.164062 -0.410156 L 1.746094 -5.578125 L 0.863281 -5.578125 Z M 0.863281 0 "/></g></g><g transform="translate(94.5754, 52.369442)"><g><path d="M 2.367188 0 L 2.855469 0 L 4.90625 -5.578125 L 4.382812 -5.578125 L 2.613281 -0.632812 L 0.839844 -5.578125 L 0.300781 -5.578125 Z M 2.367188 0 "/></g></g><g transform="translate(99.782915, 52.369442)"><g><path d="M 0.863281 0 L 4.453125 0 L 4.453125 -0.476562 L 1.398438 -0.476562 L 1.398438 -2.578125 L 4.011719 -2.578125 L 4.011719 -3.007812 L 1.398438 -3.007812 L 1.398438 -5.132812 L 4.453125 -5.132812 L 4.453125 -5.578125 L 0.863281 -5.578125 Z M 0.863281 0 "/></g></g><g transform="translate(104.666687, 52.369442)"><g><path d="M 2.238281 0.0625 C 3.210938 0.0625 3.929688 -0.558594 3.929688 -1.519531 C 3.929688 -3.308594 1.242188 -3.03125 1.242188 -4.335938 C 1.242188 -4.882812 1.707031 -5.207031 2.191406 -5.207031 C 2.652344 -5.207031 3.085938 -5.007812 3.324219 -4.550781 L 3.703125 -4.820312 C 3.363281 -5.394531 2.839844 -5.660156 2.191406 -5.660156 C 1.390625 -5.660156 0.734375 -5.101562 0.734375 -4.277344 C 0.734375 -2.613281 3.417969 -2.992188 3.417969 -1.480469 C 3.417969 -0.734375 2.925781 -0.410156 2.238281 -0.410156 C 1.558594 -0.410156 0.933594 -0.777344 0.847656 -1.542969 L 0.363281 -1.390625 C 0.515625 -0.417969 1.351562 0.0625 2.238281 0.0625 Z M 2.238281 0.0625 "/></g></g><g transform="translate(109.025364, 52.369442)"><g><path d="M 2.191406 0 L 2.730469 0 L 2.730469 -5.160156 L 4.652344 -5.160156 L 4.652344 -5.578125 L 0.277344 -5.578125 L 0.277344 -5.160156 L 2.191406 -5.160156 Z M 2.191406 0 "/></g></g><g transform="translate(113.948617, 52.369442)"><g><path d="M 2.976562 0.078125 C 4.652344 0.078125 5.441406 -1.234375 5.441406 -2.792969 C 5.441406 -4.34375 4.652344 -5.660156 2.976562 -5.660156 C 1.320312 -5.660156 0.523438 -4.34375 0.523438 -2.792969 C 0.523438 -1.234375 1.320312 0.078125 2.976562 0.078125 Z M 2.976562 -0.417969 C 1.601562 -0.417969 1.027344 -1.558594 1.027344 -2.792969 C 1.027344 -4.019531 1.601562 -5.160156 2.976562 -5.160156 C 4.375 -5.160156 4.945312 -4.019531 4.945312 -2.792969 C 4.945312 -1.558594 4.375 -0.417969 2.976562 -0.417969 Z M 2.976562 -0.417969 "/></g></g><g transform="translate(119.914163, 52.369442)"><g><path d="M 0.863281 0.0078125 L 1.398438 0.0078125 L 1.398438 -2.523438 L 2.375 -2.523438 L 3.773438 0.0078125 L 4.40625 0.0078125 L 2.902344 -2.601562 C 3.640625 -2.730469 4.113281 -3.28125 4.113281 -4.042969 C 4.113281 -4.992188 3.378906 -5.570312 2.410156 -5.570312 L 0.863281 -5.570312 Z M 1.40625 -3.039062 L 1.40625 -5.101562 L 2.417969 -5.101562 C 3.09375 -5.101562 3.597656 -4.730469 3.597656 -4.050781 C 3.597656 -3.402344 3.128906 -3.070312 2.515625 -3.039062 Z M 1.40625 -3.039062 "/></g></g></g><g fill="#000000" fill-opacity="1"><g transform="translate(86.392959, 52.012094)"><g><path d="M 0.863281 0 L 1.398438 0 L 1.398438 -5.578125 L 0.863281 -5.578125 Z M 0.863281 0 "/></g></g><g transform="translate(88.655208, 52.012094)"><g><path d="M 0.863281 0 L 1.40625 0 L 1.40625 -5.175781 L 3.800781 0 L 4.699219 0 L 4.699219 -5.578125 L 4.164062 -5.578125 L 4.164062 -0.410156 L 1.746094 -5.578125 L 0.863281 -5.578125 Z M 0.863281 0 "/></g></g><g transform="translate(94.218049, 52.012094)"><g><path d="M 2.367188 0 L 2.855469 0 L 4.90625 -5.578125 L 4.382812 -5.578125 L 2.613281 -0.632812 L 0.839844 -5.578125 L 0.300781 -5.578125 Z M 2.367188 0 "/></g></g><g transform="translate(99.425564, 52.012094)"><g><path d="M 0.863281 0 L 4.453125 0 L 4.453125 -0.476562 L 1.398438 -0.476562 L 1.398438 -2.578125 L 4.011719 -2.578125 L 4.011719 -3.007812 L 1.398438 -3.007812 L 1.398438 -5.132812 L 4.453125 -5.132812 L 4.453125 -5.578125 L 0.863281 -5.578125 Z M 0.863281 0 "/></g></g><g transform="translate(104.309336, 52.012094)"><g><path d="M 2.238281 0.0625 C 3.210938 0.0625 3.929688 -0.558594 3.929688 -1.519531 C 3.929688 -3.308594 1.242188 -3.03125 1.242188 -4.335938 C 1.242188 -4.882812 1.707031 -5.207031 2.191406 -5.207031 C 2.652344 -5.207031 3.085938 -5.007812 3.324219 -4.550781 L 3.703125 -4.820312 C 3.363281 -5.394531 2.839844 -5.660156 2.191406 -5.660156 C 1.390625 -5.660156 0.734375 -5.101562 0.734375 -4.277344 C 0.734375 -2.613281 3.417969 -2.992188 3.417969 -1.480469 C 3.417969 -0.734375 2.925781 -0.410156 2.238281 -0.410156 C 1.558594 -0.410156 0.933594 -0.777344 0.847656 -1.542969 L 0.363281 -1.390625 C 0.515625 -0.417969 1.351562 0.0625 2.238281 0.0625 Z M 2.238281 0.0625 "/></g></g><g transform="translate(108.668014, 52.012094)"><g><path d="M 2.191406 0 L 2.730469 0 L 2.730469 -5.160156 L 4.652344 -5.160156 L 4.652344 -5.578125 L 0.277344 -5.578125 L 0.277344 -5.160156 L 2.191406 -5.160156 Z M 2.191406 0 "/></g></g><g transform="translate(113.591266, 52.012094)"><g><path d="M 2.976562 0.078125 C 4.652344 0.078125 5.441406 -1.234375 5.441406 -2.792969 C 5.441406 -4.34375 4.652344 -5.660156 2.976562 -5.660156 C 1.320312 -5.660156 0.523438 -4.34375 0.523438 -2.792969 C 0.523438 -1.234375 1.320312 0.078125 2.976562 0.078125 Z M 2.976562 -0.417969 C 1.601562 -0.417969 1.027344 -1.558594 1.027344 -2.792969 C 1.027344 -4.019531 1.601562 -5.160156 2.976562 -5.160156 C 4.375 -5.160156 4.945312 -4.019531 4.945312 -2.792969 C 4.945312 -1.558594 4.375 -0.417969 2.976562 -0.417969 Z M 2.976562 -0.417969 "/></g></g><g transform="translate(119.556812, 52.012094)"><g><path d="M 0.863281 0.0078125 L 1.398438 0.0078125 L 1.398438 -2.523438 L 2.375 -2.523438 L 3.773438 0.0078125 L 4.40625 0.0078125 L 2.902344 -2.601562 C 3.640625 -2.730469 4.113281 -3.28125 4.113281 -4.042969 C 4.113281 -4.992188 3.378906 -5.570312 2.410156 -5.570312 L 0.863281 -5.570312 Z M 1.40625 -3.039062 L 1.40625 -5.101562 L 2.417969 -5.101562 C 3.09375 -5.101562 3.597656 -4.730469 3.597656 -4.050781 C 3.597656 -3.402344 3.128906 -3.070312 2.515625 -3.039062 Z M 1.40625 -3.039062 "/></g></g></g><g clip-path="url(#f5f78b3595)"><path fill="#000000" d="M 56.285156 54.574219 L 131.320312 54.574219 L 131.320312 57.945312 L 56.285156 57.945312 Z M 56.285156 54.574219 " fill-opacity="1" fill-rule="nonzero"/></g><g clip-path="url(#fef38e4ad0)"><path fill="#000000" d="M 93.75 63.199219 L 131.269531 63.199219 L 131.269531 66.433594 L 93.75 66.433594 Z M 93.75 63.199219 " fill-opacity="1" fill-rule="nonzero"/></g><g clip-path="url(#077a2d4f91)"><path fill="#000000" d="M 56.285156 67.0625 L 56.285156 60.035156 L 60.363281 60.035156 L 60.363281 67.0625 Z M 56.285156 67.0625 " fill-opacity="1" fill-rule="nonzero"/></g></svg>